{"title":"13 2010 R5 H264 Feel-Free","uid":6007471,"size":969860384,"categoryP":"video","categoryS":"movies","magnet":"?xt=urn:btih:1d27a9070cadcb99bfd00209ca47b9253f9cdd39&amp;dn=13+2010+R5+H264+Feel-Free&amp;tr=udp%3A%2F%2Ftracker.openbittorrent.com%3A80&amp;tr=udp%3A%2F%2Fopen.demonii.com%3A1337&amp;tr=udp%3A%2F%2Ftracker.coppersurfer.tk%3A6969&amp;tr=udp%3A%2F%2Fexodus.desync.com%3A6969","seeders":0,"leechers":1,"uploader":"neon","files":-1,"time":1291366051,"description":"Genre:Drama | Thriller\nLanguage:English\n &lt;a href=&quot; http://www.imdb.com/title/tt0798817/&quot; rel=&quot;nofollow&quot; target=&quot;_NEW&quot;&gt; http://www.imdb.com/title/tt0798817/&lt;/a&gt;\nSource:DVD5/Audio.CM8 Thx\nSubtitles:Romana\n\n\nGeneral\nComplete name :13 2010 R5 H264 Feel-Free\nFormat : MPEG-4\nFormat profile : Base Media\nCodec ID : mp42\nFile size : 923 MiB\nDuration : 1h 33mn\nOverall bit rate : 1 383 Kbps\nVideo #1\nCodec ID : avc1\nCodec ID/Info : Advanced Video Coding\nDuration : 1h 33mn\nBit rate mode : Variable\nBit rate : 902 Kbps\nWidth : 720 pixels\nHeight : 304 pixels\nDisplay aspect ratio : 2.35:1\nFrame rate mode : Constant\nFrame rate : 23.976 fps\nResolution : 24 bits\nColorimetry : 4:2:0\nScan type : Progressive\nBits/(Pixel*Frame) : 0.172\nStream size : 602 MiB (65%)\nAudio #2\nID : 2\nFormat : AAC\nFormat/Info : Advanced Audio Codec\nFormat version : Version 4\nFormat profile : LC\nFormat settings, SBR : No\nCodec ID : 40\nDuration : 1h 33mn\nBit rate mode : Constant\nBit rate : 477 Kbps\nNominal bit rate : 480 Kbps\nChannel(s) : 6 channels\nChannel positions : Front: L C R, Rear: L R, LFE\nSampling rate : 48.0 KHz\nResolution : 16 bits\nStream size : 318 MiB (34%)\n\nPlot:\nA naive young man assumes a dead man's identity and finds himself embroiled in an underground world of power, violence, and chance where men gamble behind closed doors on the lives of other men.\n\n","torrent":{"xt":"urn:btih:1d27a9070cadcb99bfd00209ca47b9253f9cdd39","amp;dn":"13+2010+R5+H264+Feel-Free","amp;tr":["udp%3A%2F%2Ftracker.openbittorrent.com%3A80","udp%3A%2F%2Fopen.demonii.com%3A1337","udp%3A%2F%2Ftracker.coppersurfer.tk%3A6969","udp%3A%2F%2Fexodus.desync.com%3A6969"],"infoHash":"1d27a9070cadcb99bfd00209ca47b9253f9cdd39","infoHashBuffer":{"type":"Buffer","data":[29,39,169,7,12,173,203,153,191,208,2,9,202,71,185,37,63,156,221,57]},"announce":[],"urlList":[]}}